<svg width="35" height="35" viewBox="0 0 35 35" fill="none" xmlns="http://www.w3.org/2000/svg">
<g clip-path="url(#clip0_3_32)">
<path d="M10.5 27.9999C8.56627 27.9999 7.01752 29.5662 7.01752 31.5C7.01752 33.4338 8.56627 35 10.5 35C12.4337 35 14 33.4338 14 31.5C14 29.5662 12.4337 27.9999 10.5 27.9999Z" fill="#E9D15C"/>
<path d="M12.425 19.25H25.4625C26.775 19.25 27.9212 18.5238 28.525 17.4475L34.7812 6.08999C34.9213 5.84497 35 5.55622 35 5.25C35 4.27875 34.2125 3.50002 33.25 3.50002H7.37624L5.71372 0H0V3.50002H3.50002L9.79124 16.7737L7.42874 21.0613C7.15747 21.5688 6.99997 22.1375 6.99997 22.75C6.99997 24.6838 8.56627 26.25 10.5 26.25H31.5V22.75H11.2438C10.9987 22.75 10.8063 22.5574 10.8063 22.3125C10.8063 22.2337 10.8238 22.1638 10.8588 22.1025L12.425 19.25Z" fill="#E9D15C"/>
<path d="M28 27.9999C26.0663 27.9999 24.5175 29.5662 24.5175 31.5C24.5175 33.4338 26.0663 35 28 35C29.9338 35 31.5 33.4337 31.5 31.5C31.5 29.5662 29.9338 27.9999 28 27.9999Z" fill="#E9D15C"/>
</g>
<defs>
<clipPath id="clip0_3_32">
<rect width="35" height="35" fill="white"/>
</clipPath>
</defs>
</svg>
