<svg width="68" height="74" viewBox="0 0 68 74" fill="none" xmlns="http://www.w3.org/2000/svg">
<path fill-rule="evenodd" clip-rule="evenodd" d="M5.54622 0.798319C5.21534 1.42332 5.51471 2.43698 6.95378 5.52521C13.2563 19.0021 14.6376 31.8645 10.9506 42.437C10.2626 44.4013 9.59559 46.3183 9.46429 46.7017C9.28046 47.2269 9.60084 47.4527 10.9244 47.6786C11.8592 47.8361 13.9076 48.729 15.4779 49.7059C17.9884 51.2342 18.6292 51.4496 20.8613 51.4548C23.0935 51.4601 23.7185 51.25 25.9139 49.8792C28.9706 47.9832 30.6408 47.4737 33.6765 47.4737C36.7122 47.4737 38.4034 47.999 41.4338 49.8792C43.6292 51.2395 44.312 51.4548 46.4916 51.4548C48.6712 51.4548 49.354 51.2395 51.5441 49.8792C54.6218 47.9727 56.271 47.4737 59.4223 47.4737C60.7563 47.4737 61.8435 47.3319 61.8435 47.1586C61.8435 46.9853 61.2815 44.7637 60.5935 42.2216C57.3845 30.3309 52.4422 21.2658 45.2468 14.0704C35.9559 4.81093 24.1597 0 10.7353 0C6.4916 0 5.92962 0.0840336 5.54622 0.798319ZM4.68487 53.3193C3.70375 53.6856 2.74606 54.1118 1.81723 54.5956L0 55.5095L1.15021 57.0851L2.66807 59.1177C2.94118 59.4748 3.38761 59.4223 4.3855 58.9076C6.07668 58.041 9.97899 58.0042 11.4548 58.8445C18.8078 63.0462 22.563 63.3246 27.9884 60.0525C29.9685 58.8603 31.4443 58.2931 32.9727 58.1408C34.9685 57.9359 35.4517 58.0882 38.9286 59.958C42.6523 61.9643 42.7679 61.9958 46.4916 61.9958C49.895 61.9958 50.4832 61.875 52.374 60.7826C57.5945 57.7679 59.3277 57.416 62.3529 58.7605C63.7868 59.396 64.375 59.4906 64.6534 59.1282L66.1817 57.0798L67.3319 55.5042L65.1261 54.3382C63.1933 53.3193 62.4055 53.1618 59.3172 53.1565C55.8403 53.1565 55.6408 53.2038 52.1113 55.1471C49.2279 56.7227 48.062 57.1429 46.5021 57.1429C44.9422 57.1429 43.7658 56.7227 40.8824 55.1471C37.3529 53.209 37.1481 53.1513 33.6765 53.1513C30.2048 53.1513 30 53.209 26.4706 55.1471C21.5651 57.8414 20.1681 57.8414 15.2994 55.1838C12.1481 53.4611 11.3498 53.2143 8.71849 53.083C7.37019 52.9918 6.01581 53.0641 4.68487 53.2983V53.3193ZM2.7416 65.2889C1.89049 65.6345 1.09014 66.0939 0.362395 66.6544C0.236345 66.8487 0.829832 67.8256 1.67542 68.8183L3.21429 70.6198L4.61134 69.9212C6.91702 68.8025 10.646 69.2752 13.6555 71.1345C16.4811 72.8729 19.9002 73.7237 22.4527 73.3141C24.1912 73.041 27.0011 71.8487 29.8845 70.1628C31.0508 69.5497 32.3605 69.2613 33.6765 69.3277C34.9921 69.2671 36.3 69.5609 37.4632 70.1786C40.3414 71.8487 43.1565 73.041 44.895 73.3298C47.4475 73.7395 50.8613 72.8887 53.6922 71.1502C56.7069 69.291 60.4359 68.7973 62.7416 69.9475L64.1387 70.646L65.6775 68.8445C66.5231 67.8519 67.1113 66.875 66.9905 66.6807C66.2628 66.1201 65.4625 65.6608 64.6113 65.3151C62.9412 64.5326 61.7437 64.3067 59.2595 64.3067C55.9559 64.3067 55.9034 64.3067 49.8529 67.5735C48.188 68.4664 44.7269 68.4769 43.1303 67.5735C37.5 64.4538 37.0063 64.2805 33.6765 64.2805C30.3466 64.2805 30.2784 64.2805 24.2227 67.5525C22.5578 68.4454 19.0966 68.4559 17.5 67.5525C11.8803 64.438 11.376 64.2595 8.09349 64.2647C5.60924 64.2647 4.41702 64.4906 2.7416 65.2731" fill="#E9D15C"/>
</svg>
