<svg width="72" height="19" viewBox="0 0 72 19" fill="none" xmlns="http://www.w3.org/2000/svg">
<path d="M6.75946 18.8949C5.806 18.9009 4.85428 18.8129 3.91807 18.6323C3.18315 18.495 2.45976 18.3019 1.75421 18.0546C1.45902 17.965 1.1725 17.849 0.898113 17.708L0.514709 17.1828C0.588239 16.8834 0.703785 16.2374 0.8666 15.25C1.02942 14.2626 1.13446 13.4328 1.18173 12.7552L5.1208 12.4769C5.09831 12.8054 5.14204 13.135 5.2494 13.4463C5.35677 13.7576 5.52557 14.0441 5.7458 14.2889C5.97861 14.5065 6.25321 14.6746 6.55295 14.783C6.85269 14.8913 7.17132 14.9376 7.4895 14.9191C7.90103 14.9391 8.31186 14.8674 8.69223 14.709C8.8171 14.6669 8.92596 14.5874 9.00396 14.4812C9.08197 14.375 9.12534 14.2473 9.12815 14.1155C9.11714 13.9039 9.04811 13.6993 8.92861 13.5242C8.80911 13.3491 8.64375 13.2103 8.45063 13.1229C7.75061 12.7455 7.02179 12.4241 6.27101 12.1618C5.85646 12.0349 5.44961 11.8841 5.05252 11.7101C3.8661 11.2557 2.77571 10.5822 1.83824 9.72479C1.4377 9.3159 1.12597 8.82864 0.92262 8.2936C0.719267 7.75855 0.628671 7.18726 0.656516 6.61555C0.645066 5.47268 1.04809 4.36437 1.79097 3.4958C2.66084 2.52811 3.77452 1.81165 5.01576 1.42122C6.57922 0.907475 8.21803 0.660678 9.86345 0.691177C10.761 0.687584 11.6577 0.745494 12.5473 0.864497C13.3824 0.980044 14.0546 1.09559 14.5536 1.21639C15.0525 1.33719 15.3729 1.41072 15.5147 1.45799L15.8929 2.11975C15.8228 2.37885 15.6968 2.97759 15.5147 3.91596C15.3225 4.88997 15.1823 5.8735 15.0945 6.86239L11.4653 7.10399L11.0819 6.86239V6.58403C11.0954 6.3409 11.0553 6.09779 10.9645 5.87184C10.8738 5.64588 10.7346 5.44258 10.5567 5.27626C10.1583 4.94222 9.64721 4.77311 9.12815 4.80357C8.72844 4.78963 8.332 4.88014 7.97794 5.06617C7.84374 5.13153 7.7304 5.23298 7.65062 5.35914C7.57084 5.48531 7.52778 5.6312 7.52626 5.78046C7.53786 5.99199 7.60712 6.19633 7.72655 6.3713C7.84598 6.54628 8.01102 6.68523 8.20378 6.77311C8.90243 7.14708 9.63376 7.45649 10.3887 7.69748L11.1502 7.98109C12.4407 8.42643 13.6439 9.09288 14.7059 9.95063C15.1547 10.353 15.5068 10.8515 15.736 11.409C15.9652 11.9664 16.0655 12.5685 16.0294 13.1702C16.0393 14.0276 15.8159 14.8716 15.3829 15.6117C14.9499 16.3519 14.3237 16.9603 13.5714 17.3718C11.9328 18.3872 9.65687 18.8932 6.7437 18.8897L6.75946 18.8949ZM25.5567 18.8949C23.0007 18.8949 21.159 18.452 20.0315 17.5662C18.9041 16.6803 18.3386 15.2395 18.3351 13.2437V5.08193C18.3658 4.68175 18.3139 4.27953 18.1828 3.90021C18.1103 3.79817 18.0113 3.71783 17.8966 3.66786C17.7818 3.61788 17.6556 3.60016 17.5315 3.6166L16.7332 3.65336L16.6649 3.54832L16.98 0.922271C17.3057 0.922271 17.9674 0.922275 18.9653 0.959039C19.9632 0.995804 21.0662 0.9958 22.3477 0.9958C23.0672 0.9958 23.834 0.9958 24.6534 0.938027C25.4727 0.880253 26.0189 0.89076 26.3235 0.89076L26.0084 3.67962C25.6478 3.66197 25.2937 3.78002 25.0158 4.01051C24.7929 4.2659 24.6747 4.59606 24.6849 4.93487L24.5063 12.7447C24.475 13.3587 24.6466 13.966 24.9948 14.4727C25.1589 14.6853 25.3724 14.8548 25.6167 14.9664C25.861 15.078 26.1289 15.1285 26.3971 15.1134C26.637 15.1345 26.8786 15.1053 27.1066 15.0275C27.3345 14.9497 27.5436 14.8251 27.7206 14.6618C28.0383 14.2169 28.1856 13.6726 28.1355 13.1281L28.0987 5.08193C28.1459 4.69432 28.1046 4.30108 27.9779 3.93173C27.9249 3.82802 27.842 3.74258 27.74 3.68641C27.638 3.63024 27.5215 3.60593 27.4055 3.6166L26.812 3.65336L26.7069 3.54832L27.0536 0.922271C27.3109 0.922271 27.7941 0.922275 28.5032 0.959039C29.2122 0.995804 29.8897 0.9958 30.541 0.9958C31.5179 0.9958 32.4212 0.995804 33.2458 0.959039C34.0704 0.922275 34.6218 0.922271 34.9055 0.922271L34.6639 3.6166C34.28 3.7221 33.915 3.88689 33.5819 4.10504C33.4968 4.18537 33.4306 4.28355 33.3879 4.39251C33.3452 4.50148 33.3272 4.61854 33.3351 4.7353V12.125C33.3351 14.3589 32.6838 16.0448 31.3813 17.1828C30.0788 18.3207 28.1373 18.8914 25.5567 18.8949ZM50.2101 19C49.4924 19.045 48.7789 18.8611 48.1723 18.4748C47.5711 17.9721 47.1189 17.3147 46.8645 16.5735L45.2889 12.6344H43.729V14.063C43.7072 14.4705 43.7533 14.8787 43.8655 15.271C43.9093 15.3875 43.9795 15.4923 44.0706 15.5771C44.1618 15.6618 44.2714 15.7243 44.3908 15.7594C44.8444 15.8649 45.3068 15.9282 45.7721 15.9485L45.9454 16.1954L45.6303 18.6691C45.2363 18.6691 44.5273 18.6691 43.5294 18.6166C42.5315 18.5641 41.5599 18.5641 40.6985 18.5641C39.7742 18.5641 38.7518 18.6043 37.6313 18.6849L35.4727 18.8424L35.7143 16.1639C36.2685 16.1229 36.7865 15.8732 37.1639 15.4653C37.4668 14.975 37.6065 14.4014 37.563 13.8267V4.7353C37.5877 4.4359 37.5333 4.13528 37.4055 3.86345C37.3464 3.78078 37.2671 3.71467 37.1751 3.67145C37.0831 3.62822 36.9816 3.60934 36.8803 3.6166L35.8298 3.65336L35.5147 3.30673L35.8666 0.969546L40.0683 1.00631C41.0452 1.00631 42.1096 0.981797 43.2616 0.932777C44.4118 0.885508 45.2048 0.853997 45.646 0.827737C48.4471 0.827737 50.5287 1.2584 51.8908 2.11975C52.5585 2.52836 53.1026 3.11063 53.4653 3.80439C53.8279 4.49815 53.9953 5.27735 53.9496 6.05882C53.9496 8.15966 52.8204 9.86835 50.562 11.1849L52.1691 13.6639C52.577 14.3085 53.064 14.8996 53.6187 15.4233C53.9505 15.785 54.4019 16.0145 54.8897 16.0693L55.2416 16.5578L54.958 18.7164L50.2101 19ZM45.9191 9.1313C46.4419 8.96663 46.8971 8.63673 47.2164 8.19118C47.4271 7.69389 47.5206 7.15476 47.4895 6.61555C47.5139 6.32288 47.4608 6.02894 47.3354 5.76337C47.21 5.49781 47.0168 5.27001 46.7752 5.10294C46.073 4.73449 45.2813 4.5707 44.4905 4.63025C44.4262 4.62194 44.3608 4.62698 44.2984 4.64505C44.2361 4.66312 44.1781 4.69384 44.1282 4.7353C44.0439 4.88418 44.0004 5.05267 44.0021 5.22374C43.9356 5.94503 43.8778 7.15301 43.8288 8.84769L45.9191 9.1313ZM55.7878 18.8214L56.0714 16.1061C56.6131 16.0832 57.125 15.8517 57.5 15.4601C57.8006 14.9365 57.9344 14.3337 57.8834 13.7321L57.9202 5.08193C57.9478 4.68297 57.9015 4.28234 57.7836 3.90021C57.7218 3.80021 57.6324 3.72023 57.5262 3.66991C57.4199 3.61959 57.3014 3.60107 57.1849 3.6166L56.4548 3.65336L56.0714 3.2332L56.3498 0.932777C56.8382 0.932777 57.7626 0.932781 59.1229 0.969546C60.4832 1.00631 61.917 1.00631 63.4296 1.00631C65.0123 1.00631 66.5879 0.976545 68.1565 0.917022C69.7321 0.859249 70.8666 0.780463 71.5861 0.691177L71.9748 1.14286C71.9275 1.4895 71.8435 2.2458 71.728 3.40652C71.6124 4.56723 71.5284 5.66492 71.4811 6.68908L67.1586 6.93067L67.1954 5.99055C67.2212 5.78713 67.1963 5.58049 67.123 5.38899C67.0497 5.19749 66.9302 5.02706 66.7752 4.89285C66.3146 4.6538 65.7952 4.55173 65.2784 4.59874C65.0371 4.57274 64.7936 4.62035 64.5798 4.7353C64.5139 4.80455 64.4641 4.88759 64.4341 4.97841C64.4042 5.06924 64.3947 5.16559 64.4065 5.26051L64.2332 8.41177L66.5336 8.44853C67.0903 8.44853 67.6786 8.44853 68.2931 8.39601C68.9076 8.34349 69.3435 8.33298 69.5693 8.30672L69.9475 8.72689L69.5693 12.1092C69.333 12.1092 68.8971 12.1092 68.2616 12.0725C67.6261 12.0357 66.9485 12.041 66.25 12.041C65.8202 12.0408 65.3906 12.0636 64.9632 12.1092C64.5221 12.1565 64.2332 12.1775 64.0914 12.1775V13.5378C64.0503 13.9809 64.1283 14.4269 64.3172 14.8298C64.4429 14.9519 64.5949 15.0433 64.7616 15.097C64.9283 15.1508 65.1051 15.1654 65.2784 15.1397C65.6314 15.1458 65.9839 15.1105 66.3288 15.0347C66.6387 14.9716 66.854 14.9244 66.938 14.8981L67.4632 15.4548L67.0431 18.6691C66.6702 18.6691 65.9927 18.6691 65.0368 18.6271C64.0809 18.5851 63.1565 18.5956 62.3004 18.5956C60.9699 18.5956 59.6499 18.6306 58.3403 18.7006L55.8088 18.8372L55.7878 18.8214Z" fill="black"/>
</svg>
