<svg width="35" height="35" viewBox="0 0 35 35" fill="none" xmlns="http://www.w3.org/2000/svg">
<g clip-path="url(#clip0_3_29)">
<path d="M17.2506 16.8597C19.5668 16.8597 21.5725 16.0289 23.2112 14.3899C24.85 12.7512 25.6807 10.746 25.6807 8.42957C25.6807 6.11389 24.85 4.10851 23.2109 2.46922C21.5719 0.830727 19.5665 0 17.2506 0C14.9341 0 12.929 0.830727 11.2902 2.46948C9.65149 4.10824 8.8205 6.11362 8.8205 8.42957C8.8205 10.746 9.65149 12.7514 11.2905 14.3902C12.9295 16.0287 14.9349 16.8597 17.2506 16.8597Z" fill="#E9D15C"/>
<path d="M32.001 26.9133C31.9537 26.2313 31.8581 25.4874 31.7174 24.7018C31.5754 23.9103 31.3924 23.1621 31.1735 22.4783C30.9473 21.7714 30.6397 21.0734 30.2594 20.4045C29.8648 19.7102 29.4012 19.1057 28.881 18.6082C28.3371 18.0878 27.6711 17.6693 26.901 17.3641C26.1336 17.0605 25.2831 16.9067 24.3733 16.9067C24.016 16.9067 23.6705 17.0533 23.0032 17.4878C22.5925 17.7556 22.1121 18.0653 21.5759 18.4079C21.1174 18.7001 20.4963 18.9738 19.7292 19.2216C18.9807 19.4638 18.2207 19.5866 17.4706 19.5866C16.7205 19.5866 15.9608 19.4638 15.2116 19.2216C14.4452 18.974 13.8241 18.7003 13.3661 18.4082C12.835 18.0688 12.3544 17.7591 11.9375 17.4875C11.271 17.053 10.9252 16.9064 10.5679 16.9064C9.6579 16.9064 8.80768 17.0605 8.0405 17.3644C7.27093 17.6691 6.60469 18.0875 6.06022 18.6085C5.54031 19.1062 5.07648 19.7105 4.68235 20.4045C4.30237 21.0734 3.99475 21.7712 3.76831 22.4785C3.54961 23.1624 3.3667 23.9103 3.22464 24.7018C3.08392 25.4863 2.98832 26.2305 2.94106 26.9141C2.89459 27.5838 2.87109 28.2789 2.87109 28.9809C2.87109 30.808 3.45188 32.287 4.59717 33.3778C5.7283 34.4542 7.225 35.0003 9.04507 35.0003H25.8978C27.7179 35.0003 29.214 34.4545 30.3454 33.3778C31.491 32.2878 32.0718 30.8085 32.0718 28.9807C32.0715 28.2755 32.0477 27.5798 32.001 26.9133Z" fill="#E9D15C"/>
</g>
<defs>
<clipPath id="clip0_3_29">
<rect width="35" height="35.0001" fill="white"/>
</clipPath>
</defs>
</svg>
